# xmcd CD database file
#
# Track frame offsets:
#	183
#	43715
#	96698
#	165648
#	204253
#	233995
#	255353
#
# Disc length: 3756 seconds
#
# Revision: 0
# Processed by: cddbd v1.5.1PL0 Copyright (c) Steve Scherf et al.
# Submitted via: CDex 1.51
#
DISCID=580eaa07
DTITLE=Charles Mingus - Dizionario Enciclopedico del Jazz - Volume 70
DYEAR=1992
DGENRE=Jazz
TTITLE0=O.P.
TTITLE1=Better Git It In Your Soul
TTITLE2=What Love
TTITLE3=All The Things You Could Be By Now If Sigmund Freud's Wife Was Your Mother 
TTITLE4=Solo Dancer
TTITLE5=Mood Indigo
TTITLE6=Theme For Lester Young
EXTD=YEAR: 1992
EXTT0=
EXTT1=
EXTT2=
EXTT3=
EXTT4=
EXTT5=
EXTT6=
PLAYORDER=
